HIERARCHY
ROOT SpineBase
{
  OFFSET 0.000000 0.000000 0.000000
  CHANNELS 6 Xposition Yposition Zposition Zrotation Xrotation Yrotation
  JOINT SpineMid
  {
    OFFSET 0.000000 30.847502 0.000000
    CHANNELS 3 Zrotation Xrotation Yrotation
    JOINT SpineShoulder
    {
      OFFSET 0.057387 22.825382 -0.930603
      CHANNELS 3 Zrotation Xrotation Yrotation
      JOINT Neck
      {
        OFFSET 0.037734 7.613395 -0.633481
        CHANNELS 3 Zrotation Xrotation Yrotation
        JOINT Head
        {
          OFFSET 4.227723 14.369691 3.851303
          CHANNELS 3 Zrotation Xrotation Yrotation
          End Site
          {
            OFFSET 0 0 0
          }
        }
      }
      JOINT ShoulderLeft
      {
        OFFSET -9.514898 -4.432930 -12.083838
        CHANNELS 3 Zrotation Xrotation Yrotation
        JOINT ElbowLeft
        {
          OFFSET -4.089748 -23.056562 -9.209240
          CHANNELS 3 Zrotation Xrotation Yrotation
          JOINT WristLeft
          {
            OFFSET 2.110608 -22.505138 -6.357581
            CHANNELS 3 Zrotation Xrotation Yrotation
            JOINT HandLeft
            {
              OFFSET -0.490620 -8.345252 -1.960389
              CHANNELS 3 Zrotation Xrotation Yrotation
              JOINT HandTipLeft
              {
                OFFSET 0.521760 -8.109709 -0.412877
                CHANNELS 3 Zrotation Xrotation Yrotation
                End Site
                {
                  OFFSET 0 0 0
                }
              }
              JOINT ThumbLeft
              {
                OFFSET 3.826754 2.705600 -0.645113
                CHANNELS 3 Zrotation Xrotation Yrotation
                End Site
                {
                  OFFSET 0 0 0
                }
              }
            }
          }
        }
      }
      JOINT ShoulderRight
      {
        OFFSET 9.355196 -6.323116 11.722635
        CHANNELS 3 Zrotation Xrotation Yrotation
        JOINT ElbowRight
        {
          OFFSET 1.373787 -21.790229 -3.822022
          CHANNELS 3 Zrotation Xrotation Yrotation
          JOINT WristRight
          {
            OFFSET 6.300122 -25.882233 8.091233
            CHANNELS 3 Zrotation Xrotation Yrotation
            JOINT HandRight
            {
              OFFSET 2.539360 -7.145513 1.609609
              CHANNELS 3 Zrotation Xrotation Yrotation
              JOINT HandTipRight
              {
                OFFSET 0.947047 -4.200234 -0.575181
                CHANNELS 3 Zrotation Xrotation Yrotation
                End Site
                {
                  OFFSET 0 0 0
                }
              }
              JOINT ThumbRight
              {
                OFFSET 3.718813 0.466613 -4.512648
                CHANNELS 3 Zrotation Xrotation Yrotation
                End Site
                {
                  OFFSET 0 0 0
                }
              }
            }
          }
        }
      }
    }
  }
  JOINT HipLeft
  {
    OFFSET -4.287932 1.360897 -7.985960
    CHANNELS 3 Zrotation Xrotation Yrotation
    JOINT KneeLeft
    {
      OFFSET -11.002921 -38.605617 -1.220081
      CHANNELS 3 Zrotation Xrotation Yrotation
      JOINT AnkleLeft
      {
        OFFSET -6.510658 -37.218608 7.654922
        CHANNELS 3 Zrotation Xrotation Yrotation
        JOINT FootLeft
        {
          OFFSET 1.421535 -8.475459 -3.408815
          CHANNELS 3 Zrotation Xrotation Yrotation
          End Site
          {
            OFFSET 0 0 0
          }
        }
      }
    }
  }
  JOINT HipRight
  {
    OFFSET 5.229761 0.061102 0.857026
    CHANNELS 3 Zrotation Xrotation Yrotation
    JOINT KneeRight
    {
      OFFSET 1.047575 -41.096747 3.346240
      CHANNELS 3 Zrotation Xrotation Yrotation
      JOINT AnkleRight
      {
        OFFSET -7.017643 -37.529932 8.493262
        CHANNELS 3 Zrotation Xrotation Yrotation
        JOINT FootRight
        {
          OFFSET 7.995368 -3.730878 -9.590350
          CHANNELS 3 Zrotation Xrotation Yrotation
          End Site
          {
            OFFSET 0 0 0
          }
        }
      }
    }
  }
}
MOTION
Frames: 15
Frame Time: 0.033333
-45.029422 95.365227 342.611812 -2.448035 10.473768 -29.167077 -0.926209 1.151356 29.269872 -0.221958 0.281060 -0.180800 17.501638 -9.692008 -1.199670 0.000000 0.000000 0.000000 -6.546887 -17.964987 2.869167 -0.182354 2.734927 -2.042137 3.440803 2.137527 -0.907295 0.670607 11.310973 0.009709 0.000000 0.000000 0.000000 0.000000 0.000000 0.000000 116.963176 16.594991 -31.126615 133.192325 50.760238 -95.145464 -9.388940 2.027497 63.059422 -18.930986 -37.872239 8.490885 0.000000 0.000000 0.000000 0.000000 0.000000 0.000000 10.425295 -2.789385 29.189191 -3.327490 -6.665176 2.047378 1.590355 11.101043 -1.431920 0.000000 0.000000 0.000000 7.472444 -3.129962 30.225353 -2.662017 -8.726033 0.440049 -2.065432 9.000244 13.526023 0.000000 0.000000 0.000000
-44.641509 97.225803 342.579342 -3.482300 14.504647 -25.444791 -1.048113 1.816326 25.759231 -0.023213 0.667416 -0.183714 26.760060 -15.785798 1.297823 0.000000 0.000000 0.000000 -7.771898 -22.226567 2.298829 -0.402185 2.926526 -1.856007 2.621014 4.135539 -0.800898 5.036366 13.302976 -0.208067 0.000000 0.000000 0.000000 0.000000 0.000000 0.000000 118.122218 17.591860 -25.645385 133.459106 44.070102 -97.044460 -14.453280 -1.046070 60.769367 -15.103464 -37.437186 21.067790 0.000000 0.000000 0.000000 0.000000 0.000000 0.000000 13.144394 -5.910408 26.244363 -4.252239 -7.175978 2.041187 -0.855863 6.444314 -0.628796 0.000000 0.000000 0.000000 10.446631 -6.811811 27.333732 -3.655477 -8.719789 0.263304 -1.185189 9.071202 12.416825 0.000000 0.000000 0.000000
-43.997006 98.541730 342.582281 -3.786457 16.679957 -23.007150 -0.926006 2.268386 23.470321 0.163464 0.917928 -0.140570 28.420770 -13.444423 -0.052618 0.000000 0.000000 0.000000 -9.391141 -24.465199 1.713708 0.349410 3.288521 -1.997409 2.663793 3.940319 -0.937952 7.022888 15.986969 -0.163574 0.000000 0.000000 0.000000 0.000000 0.000000 0.000000 120.661353 17.055481 -22.170249 131.064028 36.347635 -98.968918 -20.351672 -5.786789 55.088599 -8.694925 -37.738961 35.469268 0.000000 0.000000 0.000000 0.000000 0.000000 0.000000 14.273774 -7.962700 24.338562 -5.147182 -7.385579 1.914592 -1.013777 7.923469 0.086896 0.000000 0.000000 0.000000 11.174299 -9.141181 25.309769 -4.018499 -9.037331 0.158363 -0.615363 9.318746 12.236609 0.000000 0.000000 0.000000
-43.195760 98.984857 342.560199 -3.536871 17.483257 -22.321903 -0.871944 2.360931 22.789492 0.217329 0.938233 -0.116489 31.496409 -11.136173 -1.383908 0.000000 0.000000 0.000000 -10.415849 -25.165772 1.399699 1.080488 3.987989 -2.092388 4.014466 2.447412 -1.439779 6.792099 18.053059 -0.009591 0.000000 0.000000 0.000000 0.000000 0.000000 0.000000 122.738922 15.006326 -18.947561 127.369362 29.229728 -100.960439 -18.272247 -2.420360 43.274038 -2.190003 -33.277712 74.412377 0.000000 0.000000 0.000000 0.000000 0.000000 0.000000 14.456381 -8.970427 23.858050 -5.865562 -7.286277 1.719979 2.738190 18.711230 0.165847 0.000000 0.000000 0.000000 10.581361 -10.099367 24.556882 -3.930895 -9.494512 0.090267 -0.332673 9.550029 12.712873 0.000000 0.000000 0.000000
-42.374976 98.455999 342.538779 -2.786579 16.929337 -23.104258 -0.820973 2.202110 23.453899 0.230416 0.817732 -0.088711 30.146352 -8.626495 -3.065932 0.000000 0.000000 0.000000 -11.102359 -24.312109 1.380482 2.493810 4.468851 -2.478656 5.186372 0.060500 -1.753093 6.447851 19.669605 -0.117023 0.000000 0.000000 0.000000 0.000000 0.000000 0.000000 124.456797 12.373430 -17.392060 122.445817 21.787243 -106.343232 -24.050729 -4.726259 55.837253 -5.256148 -36.532846 48.257316 0.000000 0.000000 0.000000 0.000000 0.000000 0.000000 13.741038 -8.860524 24.454578 -6.356520 -6.968335 1.496423 5.236465 26.969338 0.167631 0.000000 0.000000 0.000000 8.949038 -9.770761 24.844458 -3.492827 -9.933886 0.056572 -0.423332 9.744222 14.072106 0.000000 0.000000 0.000000
-41.507853 97.066033 342.509606 -1.349933 14.723476 -25.197122 -0.694103 1.810608 25.333613 0.216419 0.542344 -0.040274 22.708576 -5.353723 -4.782179 0.000000 0.000000 0.000000 -11.030763 -22.239835 1.684612 2.633668 5.628299 -2.462040 7.486751 -2.613140 -2.157947 4.200255 19.746414 0.048800 0.000000 0.000000 0.000000 0.000000 0.000000 0.000000 127.341946 9.199923 -19.107192 111.446298 16.627872 -118.434671 -24.660557 -9.512664 43.355743 12.974131 -35.484637 50.623146 0.000000 0.000000 0.000000 0.000000 0.000000 0.000000 11.585664 -7.608551 25.922925 -6.349065 -6.498522 1.284144 6.336916 31.546718 0.325348 0.000000 0.000000 0.000000 5.941454 -8.155427 26.080902 -2.698751 -10.366941 0.078129 -0.674707 9.850674 15.516001 0.000000 0.000000 0.000000
-40.409607 95.731461 342.418037 0.785213 11.489982 -26.379130 -0.413147 1.179847 26.317178 0.072080 0.290236 0.018578 15.373648 -4.518050 -4.604594 0.000000 0.000000 0.000000 -10.306613 -19.027790 1.948837 2.020079 6.520491 -2.227174 10.997446 -4.356994 -2.608854 -0.406815 18.119898 0.923213 0.000000 0.000000 0.000000 0.000000 0.000000 0.000000 130.765581 5.472496 -22.963486 95.360695 11.856715 -137.117139 -23.278145 -11.432937 30.645309 24.659160 -25.319298 62.534065 0.000000 0.000000 0.000000 0.000000 0.000000 0.000000 7.837692 -6.192484 26.347436 -5.970564 -6.023789 1.075039 3.367133 29.357756 2.235464 0.000000 0.000000 0.000000 1.408232 -6.569620 26.314852 -1.503099 -10.518711 0.161930 -1.171008 10.195051 18.159365 0.000000 0.000000 0.000000
-39.332469 95.244280 342.452605 2.556734 7.317626 -27.781235 -0.584995 0.438677 27.656153 -0.430782 0.182115 0.005683 13.132359 -3.472565 -4.227333 0.000000 0.000000 0.000000 -8.451627 -14.994363 2.270153 -0.060486 7.253317 -1.407551 13.676575 -5.481314 -2.973404 -5.992511 17.292687 2.195056 0.000000 0.000000 0.000000 0.000000 0.000000 0.000000 135.513928 2.807313 -30.915774 75.665578 7.345000 -159.371250 -21.033547 -11.840850 16.624766 25.114553 -18.152649 79.989780 0.000000 0.000000 0.000000 0.000000 0.000000 0.000000 3.759141 -3.835070 27.200483 -5.312377 -5.656986 0.921316 2.715515 29.942854 2.941564 0.000000 0.000000 0.000000 -3.201701 -4.072830 27.203576 -0.321982 -10.632621 0.249141 -1.505827 10.304320 19.889306 0.000000 0.000000 0.000000
-38.333822 95.150689 342.545199 3.858634 3.325112 -29.693363 -0.605689 -0.150865 29.681467 -0.575888 -0.229177 0.070943 12.801000 -3.453409 -3.640864 0.000000 0.000000 0.000000 -7.197803 -10.494952 2.289641 -2.284517 7.256881 -0.531515 16.236800 -5.751351 -3.432320 -10.643979 16.102090 3.283752 0.000000 0.000000 0.000000 0.000000 0.000000 0.000000 139.385489 1.082392 -41.813269 54.103682 3.969482 179.097198 -15.044766 -9.399211 0.258978 21.382582 -21.679716 85.333850 0.000000 0.000000 0.000000 0.000000 0.000000 0.000000 -0.045906 -1.549964 28.929983 -4.391251 -5.429565 0.830891 3.521472 32.343661 2.853364 0.000000 0.000000 0.000000 -7.320056 -1.727409 29.052523 0.924803 -10.661755 0.370485 -1.795404 10.204776 20.824672 0.000000 0.000000 0.000000
-37.285104 95.244880 342.676498 4.807340 0.057927 -31.001340 -0.565846 -0.825912 31.171686 -0.593313 -0.738289 0.143742 11.860122 -0.681223 -4.049584 0.000000 0.000000 0.000000 -6.801403 -6.092161 2.320366 -3.296191 6.685998 -0.162182 18.119455 -5.422802 -3.848318 -14.170226 15.245725 4.115560 0.000000 0.000000 0.000000 0.000000 0.000000 0.000000 143.456905 -0.125721 -54.158132 34.380944 0.766502 163.037855 -3.368603 -2.002310 -20.168646 2.617840 -7.136586 -60.088769 0.000000 0.000000 0.000000 0.000000 0.000000 0.000000 -3.544263 0.268412 30.254164 -3.391126 -5.536485 0.802554 8.613036 38.713457 0.353133 0.000000 0.000000 0.000000 -10.808289 -0.120800 30.523136 2.047875 -10.590478 0.473796 -0.584981 12.214077 20.976271 0.000000 0.000000 0.000000
-36.382171 95.639354 342.836564 5.027205 -0.978531 -31.891192 -0.524907 -0.831893 32.129095 -0.145427 -0.563277 0.191136 10.206844 -2.583224 -2.824331 0.000000 0.000000 0.000000 -6.669210 -5.102207 2.024315 -4.781685 6.336011 0.443207 18.832670 -4.490965 -4.189752 -15.674588 12.951822 4.233945 0.000000 0.000000 0.000000 0.000000 0.000000 0.000000 147.031182 2.139994 -66.698443 21.364580 -2.604737 155.548569 6.056954 6.288573 -35.760616 10.212765 0.168847 -84.681985 0.000000 0.000000 0.000000 0.000000 0.000000 0.000000 -5.192168 0.698328 31.149285 -2.610233 -5.707977 0.800712 10.096970 40.088336 -0.385727 0.000000 0.000000 0.000000 -12.215379 -0.035988 31.436097 2.785704 -10.421512 0.528241 -1.916372 9.419207 20.840926 0.000000 0.000000 0.000000
-35.746453 96.316491 343.013033 4.318627 1.282327 -32.416130 -0.467413 -0.355063 32.510879 0.403256 -0.436358 0.211564 8.807734 -7.928523 -0.813728 0.000000 0.000000 0.000000 -7.198114 -7.364925 1.831153 -5.262149 5.576420 0.598515 18.063646 -2.450541 -4.367587 -13.719147 11.771277 3.622637 0.000000 0.000000 0.000000 0.000000 0.000000 0.000000 150.310178 7.758145 -77.696180 14.989933 -6.198970 153.766638 11.496002 15.608755 -48.353688 10.483486 2.930963 -77.484842 0.000000 0.000000 0.000000 0.000000 0.000000 0.000000 -4.040635 -0.764567 31.427204 -2.347857 -6.019846 0.816616 9.104206 36.125682 0.130343 0.000000 0.000000 0.000000 -10.623890 -2.093030 31.570572 3.079708 -10.067353 0.527992 -2.767507 6.852844 19.570531 0.000000 0.000000 0.000000
-35.048144 96.573359 343.141548 4.612116 1.149511 -33.715058 -0.230478 -0.107328 33.839433 0.853466 -0.426565 0.284008 5.301258 -5.204572 -1.498773 0.000000 0.000000 0.000000 -8.529742 -6.745008 1.730456 -3.960954 5.068593 0.128104 16.456306 -0.875014 -4.129688 -11.742534 10.154388 3.116875 0.000000 0.000000 0.000000 0.000000 0.000000 0.000000 150.605725 9.148866 -83.049559 10.851446 -7.909451 149.936096 14.789422 22.322557 -58.400091 3.548940 2.568704 -64.760401 0.000000 0.000000 0.000000 0.000000 0.000000 0.000000 -4.737297 -1.066611 32.684960 -2.311869 -5.970807 0.705790 9.986891 36.816183 -0.037972 0.000000 0.000000 0.000000 -11.565970 -2.812392 32.700726 3.799333 -10.013266 0.588638 -2.055425 7.573216 19.058797 0.000000 0.000000 0.000000
-34.542230 96.491166 343.172227 4.935469 1.111776 -35.181661 -0.116505 -0.053510 35.324879 1.073783 -0.447751 0.327076 5.838327 -5.697227 -1.622287 0.000000 0.000000 0.000000 -9.430358 -5.973451 1.650956 -2.182144 4.646102 -0.451148 14.884308 0.474173 -3.846459 -9.997764 8.512843 2.784037 0.000000 0.000000 0.000000 0.000000 0.000000 0.000000 148.536157 9.268545 -80.885726 4.984334 -7.391245 138.659138 16.612249 26.212068 -65.667943 6.134048 9.831377 -71.343083 0.000000 0.000000 0.000000 0.000000 0.000000 0.000000 -5.152478 -1.426450 34.119136 -2.531280 -5.885665 0.581880 8.239227 36.299006 1.419146 0.000000 0.000000 0.000000 -12.320269 -3.621333 33.986836 4.319917 -9.947179 0.611656 -4.452610 3.102381 18.943059 0.000000 0.000000 0.000000
-34.259730 96.182208 343.145706 5.221735 1.081425 -36.436509 0.016251 0.032770 36.598425 1.223291 -0.448468 0.362041 4.827491 -6.095355 -1.410361 0.000000 0.000000 0.000000 -10.325070 -5.114743 1.584693 0.318950 4.203781 -1.226640 13.201652 0.882984 -3.406077 -7.677414 7.876000 2.561454 0.000000 0.000000 0.000000 0.000000 0.000000 0.000000 144.537569 8.481138 -73.736001 6.705797 -3.300673 136.110117 32.780465 22.016727 -85.711197 0.144908 -1.490344 -61.068002 0.000000 0.000000 0.000000 0.000000 0.000000 0.000000 -5.384962 -1.764256 35.366483 -2.786384 -5.768928 0.471402 5.877135 33.599955 2.914379 0.000000 0.000000 0.000000 -12.814817 -4.353688 35.090891 4.638766 -9.764051 0.604966 -4.569143 2.646797 19.141497 0.000000 0.000000 0.000000
